<svg width="114" height="28" viewBox="0 0 114 28" fill="none" xmlns="http://www.w3.org/2000/svg">
<path d="M4.8877 13.04C4.44368 13.2907 4.08919 13.6273 3.82422 14.0498C3.55924 14.4723 3.42676 14.9342 3.42676 15.4355C3.42676 16.1947 3.71322 16.8499 4.28613 17.4014C4.85189 17.9456 5.52148 18.2178 6.29492 18.2178C7.07552 18.2178 7.7487 17.9456 8.31445 17.4014C8.88737 16.8499 9.17383 16.1947 9.17383 15.4355C9.17383 14.9342 9.04134 14.4723 8.77637 14.0498C8.51139 13.6273 8.1569 13.2907 7.71289 13.04C7.27604 12.7965 6.80339 12.6748 6.29492 12.6748C5.80078 12.6748 5.33171 12.7965 4.8877 13.04ZM9.18457 21V20.6777C8.9554 20.778 8.78711 20.846 8.67969 20.8818C7.92057 21.1755 7.12565 21.3223 6.29492 21.3223C5.19922 21.3223 4.16439 21.068 3.19043 20.5596C2.21647 20.0439 1.44303 19.3421 0.870117 18.4541C0.290039 17.5518 0 16.5456 0 15.4355C0 14.5977 0.168294 13.8171 0.504883 13.0938C0.841471 12.3776 1.30339 11.7546 1.89062 11.2246C2.4707 10.6947 3.14388 10.29 3.91016 10.0107C4.67643 9.71712 5.47135 9.57031 6.29492 9.57031C7.11133 9.57031 7.90625 9.71354 8.67969 10C9.45312 10.2865 10.1263 10.6947 10.6992 11.2246C11.3008 11.7689 11.7663 12.3919 12.0957 13.0938C12.4323 13.8171 12.6006 14.5977 12.6006 15.4355L12.5898 21.0322L9.18457 21ZM18.7881 9.62402V12.8682C18.609 12.7464 18.3763 12.6784 18.0898 12.6641H17.8965C17.0228 12.6999 16.5859 13.3086 16.5859 14.4902V21H13.1484V14.4902C13.1484 11.3607 14.7311 9.71712 17.8965 9.55957H18.0898C18.3262 9.56673 18.5589 9.58822 18.7881 9.62402ZM29.0684 14.2432V21.0107H25.6201V14.2432C25.5628 13.2334 25.1296 12.7142 24.3203 12.6855H24.127C23.2533 12.7142 22.8164 13.3193 22.8164 14.501V21.0107H19.3789V14.501C19.3789 11.3857 20.9616 9.74219 24.127 9.57031H24.3203C25.5807 9.64193 26.5905 9.94271 27.3496 10.4727C28.1016 9.94271 29.1077 9.64193 30.3682 9.57031H30.5615C33.7269 9.74219 35.3096 11.3857 35.3096 14.501V21.0107H31.8721V14.501C31.8721 13.3193 31.4352 12.7142 30.5615 12.6855H30.3682C29.5589 12.7142 29.1257 13.2334 29.0684 14.2432ZM43.0547 22.2676V20.7959C42.403 21.0609 41.8014 21.2184 41.25 21.2686C37.8626 21.6266 36.1689 20.0117 36.1689 16.4238V10.0107H39.6064V16.1875C39.6064 16.8392 39.7568 17.3333 40.0576 17.6699C40.3584 17.9993 40.7809 18.1641 41.3252 18.1641C41.848 18.1641 42.2669 17.9958 42.582 17.6592C42.8828 17.3226 43.0332 16.832 43.0332 16.1875V10.0215L46.4707 10.0107V22.2998C46.4707 23.6318 45.998 24.7777 45.0527 25.7373C44.623 26.167 44.0322 26.5179 43.2803 26.79C42.5999 27.0335 41.916 27.1553 41.2285 27.1553H40.6592C39.1266 27.1266 37.8984 26.654 36.9746 25.7373C36.373 25.1214 36.0007 24.57 35.8574 24.083L38.9619 22.2676C38.9906 22.8118 39.2018 23.2702 39.5957 23.6426C39.9896 24.015 40.4587 24.2012 41.0029 24.2012C41.4255 24.2012 41.8122 24.0794 42.1631 23.8359C42.4925 23.6139 42.7396 23.306 42.9043 22.9121L42.915 22.8799L42.9365 22.8262L42.958 22.751L42.9795 22.6758C43.0081 22.6113 43.026 22.529 43.0332 22.4287C43.0332 22.4144 43.0368 22.3965 43.0439 22.375V22.2676H43.0547ZM54.1084 16.6709V10.0107H57.5566V16.6709C57.6139 17.6807 58.0472 18.1999 58.8564 18.2285H59.0498C59.9235 18.1999 60.3604 17.5947 60.3604 16.4131V10.0107H63.7979V16.4131C63.7979 19.5283 62.2152 21.1719 59.0498 21.3438H58.8564C57.596 21.2721 56.5863 20.9714 55.8271 20.4414C55.0752 20.9714 54.069 21.2721 52.8086 21.3438H52.6152C49.4499 21.1719 47.8672 19.5283 47.8672 16.4131V10.0107H51.3047V16.4131C51.3047 17.5947 51.7415 18.1999 52.6152 18.2285H52.8086C53.6178 18.1999 54.0511 17.6807 54.1084 16.6709ZM67.9014 10.0107V21.0215H64.4746V10.0215L67.9014 10.0107ZM67.9121 6.89551C67.9121 7.23926 67.8333 7.54362 67.6758 7.80859C67.5182 8.07357 67.3034 8.28841 67.0312 8.45312C66.7591 8.61784 66.4583 8.7002 66.1289 8.7002C65.7995 8.7002 65.5023 8.62142 65.2373 8.46387C64.9652 8.29915 64.7503 8.08073 64.5928 7.80859C64.4281 7.52214 64.3457 7.21777 64.3457 6.89551C64.3457 6.56608 64.4245 6.2653 64.582 5.99316C64.7539 5.71387 64.9723 5.49544 65.2373 5.33789C65.5023 5.18034 65.7995 5.10156 66.1289 5.10156C66.4583 5.10156 66.7591 5.18034 67.0312 5.33789C67.2962 5.49544 67.5111 5.71387 67.6758 5.99316C67.8333 6.2653 67.9121 6.56608 67.9121 6.89551ZM68.4492 21V5.76758L71.8867 5.75684V14.1787H71.9297L75.4854 10.0107H79.5137L75.5391 14.7266L80.2119 21H75.9258L71.8867 15.6074V21H68.4492ZM84.3154 10.0107V21.0215H80.8887V10.0215L84.3154 10.0107ZM84.3262 6.89551C84.3262 7.23926 84.2474 7.54362 84.0898 7.80859C83.9323 8.07357 83.7174 8.28841 83.4453 8.45312C83.1732 8.61784 82.8724 8.7002 82.543 8.7002C82.2135 8.7002 81.9163 8.62142 81.6514 8.46387C81.3792 8.29915 81.1644 8.08073 81.0068 7.80859C80.8421 7.52214 80.7598 7.21777 80.7598 6.89551C80.7598 6.56608 80.8385 6.2653 80.9961 5.99316C81.168 5.71387 81.3864 5.49544 81.6514 5.33789C81.9163 5.18034 82.2135 5.10156 82.543 5.10156C82.8724 5.10156 83.1732 5.18034 83.4453 5.33789C83.7103 5.49544 83.9251 5.71387 84.0898 5.99316C84.2474 6.2653 84.3262 6.56608 84.3262 6.89551ZM84.8633 19.3027C84.8633 18.9518 84.9528 18.6331 85.1318 18.3467C85.318 18.0459 85.5579 17.8132 85.8516 17.6484C86.1523 17.4766 86.471 17.3906 86.8076 17.3906C87.1442 17.3906 87.4629 17.4766 87.7637 17.6484C88.0573 17.8275 88.2936 18.0638 88.4727 18.3574C88.6517 18.6439 88.7412 18.959 88.7412 19.3027C88.7412 19.8757 88.555 20.3483 88.1826 20.7207C87.8031 21.1003 87.3447 21.29 86.8076 21.29C86.4495 21.29 86.1237 21.2041 85.8301 21.0322C85.5293 20.8604 85.293 20.6204 85.1211 20.3125C84.9492 19.9974 84.8633 19.6608 84.8633 19.3027ZM99.043 15.4785H102.04L100.547 12.7715L99.043 15.4785ZM105.08 21L103.587 18.293H97.4961L96.0029 21H92.1465L100.547 5.54199L108.937 21H105.08ZM109.484 5.76758H113.223V21L109.484 20.9893V5.76758Z" fill="white"/>
</svg>
