<svg width="230" height="67" viewBox="0 0 230 67" fill="none" xmlns="http://www.w3.org/2000/svg">
<path d="M12.6636 30.3765C11.5132 31.0259 10.5947 31.8979 9.9082 32.9927C9.22168 34.0874 8.87842 35.2842 8.87842 36.583C8.87842 38.5498 9.62061 40.2476 11.105 41.6763C12.5708 43.0864 14.3057 43.7915 16.3096 43.7915C18.332 43.7915 20.0762 43.0864 21.542 41.6763C23.0264 40.2476 23.7686 38.5498 23.7686 36.583C23.7686 35.2842 23.4253 34.0874 22.7388 32.9927C22.0522 31.8979 21.1338 31.0259 19.9834 30.3765C18.8516 29.7456 17.627 29.4302 16.3096 29.4302C15.0293 29.4302 13.814 29.7456 12.6636 30.3765ZM23.7964 51V50.165C23.2026 50.4248 22.7666 50.6011 22.4883 50.6938C20.5215 51.4546 18.4619 51.835 16.3096 51.835C13.4707 51.835 10.7896 51.1763 8.26611 49.8589C5.74268 48.5229 3.73877 46.7046 2.25439 44.4038C0.751465 42.0659 0 39.459 0 36.583C0 34.4121 0.436035 32.3896 1.30811 30.5156C2.18018 28.6602 3.37695 27.0459 4.89844 25.6729C6.40137 24.2998 8.14551 23.2515 10.1309 22.5278C12.1162 21.7671 14.1758 21.3867 16.3096 21.3867C18.4248 21.3867 20.4844 21.7578 22.4883 22.5C24.4922 23.2422 26.2363 24.2998 27.7207 25.6729C29.2793 27.083 30.4854 28.6973 31.3389 30.5156C32.2109 32.3896 32.647 34.4121 32.647 36.583L32.6191 51.0835L23.7964 51ZM48.4282 21.5259V29.9312C47.9644 29.6157 47.3613 29.4395 46.6191 29.4023H46.1182C43.8545 29.4951 42.7227 31.0723 42.7227 34.1338V51H33.8164V34.1338C33.8164 26.0254 37.917 21.7671 46.1182 21.3589H46.6191C47.2314 21.3774 47.8345 21.4331 48.4282 21.5259ZM74.8135 33.4937V51.0278H65.8794V33.4937C65.731 30.8774 64.6084 29.5322 62.5117 29.458H62.0107C59.7471 29.5322 58.6152 31.1001 58.6152 34.1616V51.0278H49.709V34.1616C49.709 26.0903 53.8096 21.832 62.0107 21.3867H62.5117C65.7773 21.5723 68.3936 22.3516 70.3604 23.7246C72.3086 22.3516 74.9155 21.5723 78.1812 21.3867H78.6821C86.8833 21.832 90.9839 26.0903 90.9839 34.1616V51.0278H82.0776V34.1616C82.0776 31.1001 80.9458 29.5322 78.6821 29.458H78.1812C76.0845 29.5322 74.9619 30.8774 74.8135 33.4937ZM110.801 54.2842V50.4712C109.112 51.1577 107.554 51.5659 106.125 51.6958C97.3486 52.6235 92.9604 48.4395 92.9604 39.1436V22.5278H101.867V38.5312C101.867 40.2197 102.256 41.5 103.036 42.3721C103.815 43.2256 104.91 43.6523 106.32 43.6523C107.674 43.6523 108.76 43.2163 109.576 42.3442C110.355 41.4722 110.745 40.2012 110.745 38.5312V22.5557L119.651 22.5278V54.3677C119.651 57.8188 118.427 60.7876 115.978 63.2739C114.864 64.3872 113.333 65.2964 111.385 66.0015C109.623 66.6323 107.851 66.9478 106.069 66.9478H104.594C100.624 66.8735 97.4414 65.6489 95.0479 63.2739C93.4893 61.6782 92.5244 60.2495 92.1533 58.9878L100.197 54.2842C100.271 55.6943 100.818 56.8818 101.839 57.8467C102.859 58.8115 104.075 59.2939 105.485 59.2939C106.58 59.2939 107.582 58.9785 108.491 58.3477C109.344 57.7725 109.984 56.9746 110.411 55.9541L110.439 55.8706L110.495 55.7314L110.55 55.5366L110.606 55.3418C110.68 55.1748 110.727 54.9614 110.745 54.7017C110.745 54.6646 110.754 54.6182 110.773 54.5625V54.2842H110.801ZM139.19 39.7837V22.5278H148.124V39.7837C148.272 42.3999 149.395 43.7451 151.492 43.8193H151.993C154.256 43.7451 155.388 42.1772 155.388 39.1157V22.5278H164.294V39.1157C164.294 47.187 160.194 51.4453 151.993 51.8906H151.492C148.226 51.7051 145.61 50.9258 143.643 49.5527C141.695 50.9258 139.088 51.7051 135.822 51.8906H135.321C127.12 51.4453 123.02 47.187 123.02 39.1157V22.5278H131.926V39.1157C131.926 42.1772 133.058 43.7451 135.321 43.8193H135.822C137.919 43.7451 139.042 42.3999 139.19 39.7837ZM174.676 22.5278V51.0557H165.798V22.5557L174.676 22.5278ZM174.704 14.4565C174.704 15.3472 174.5 16.1357 174.092 16.8223C173.684 17.5088 173.127 18.0654 172.422 18.4922C171.717 18.9189 170.938 19.1323 170.084 19.1323C169.23 19.1323 168.46 18.9282 167.774 18.52C167.069 18.0933 166.512 17.5273 166.104 16.8223C165.677 16.0801 165.464 15.2915 165.464 14.4565C165.464 13.603 165.668 12.8237 166.076 12.1187C166.521 11.395 167.087 10.8291 167.774 10.4209C168.46 10.0127 169.23 9.80859 170.084 9.80859C170.938 9.80859 171.717 10.0127 172.422 10.4209C173.108 10.8291 173.665 11.395 174.092 12.1187C174.5 12.8237 174.704 13.603 174.704 14.4565ZM175.846 51V11.5342L184.752 11.5063V33.3267H184.863L194.076 22.5278H204.513L194.215 34.7461L206.322 51H195.217L184.752 37.0283V51H175.846ZM216.704 22.5278V51.0557H207.825V22.5557L216.704 22.5278ZM216.731 14.4565C216.731 15.3472 216.527 16.1357 216.119 16.8223C215.711 17.5088 215.154 18.0654 214.449 18.4922C213.744 18.9189 212.965 19.1323 212.111 19.1323C211.258 19.1323 210.488 18.9282 209.801 18.52C209.096 18.0933 208.54 17.5273 208.131 16.8223C207.705 16.0801 207.491 15.2915 207.491 14.4565C207.491 13.603 207.695 12.8237 208.104 12.1187C208.549 11.395 209.115 10.8291 209.801 10.4209C210.488 10.0127 211.258 9.80859 212.111 9.80859C212.965 9.80859 213.744 10.0127 214.449 10.4209C215.136 10.8291 215.692 11.395 216.119 12.1187C216.527 12.8237 216.731 13.603 216.731 14.4565ZM217.873 46.6025C217.873 45.6934 218.105 44.8677 218.569 44.1255C219.051 43.3462 219.673 42.7432 220.434 42.3164C221.213 41.8711 222.039 41.6484 222.911 41.6484C223.783 41.6484 224.608 41.8711 225.388 42.3164C226.148 42.7803 226.761 43.3926 227.225 44.1533C227.688 44.8955 227.92 45.7119 227.92 46.6025C227.92 48.0869 227.438 49.3115 226.473 50.2764C225.49 51.2598 224.302 51.7515 222.911 51.7515C221.983 51.7515 221.139 51.5288 220.378 51.0835C219.599 50.6382 218.986 50.0166 218.541 49.2188C218.096 48.4023 217.873 47.5303 217.873 46.6025Z" fill="url(#paint0_linear_56900_2797)"/>
<defs>
<linearGradient id="paint0_linear_56900_2797" x1="0" y1="32" x2="230" y2="32" gradientUnits="userSpaceOnUse">
<stop stop-color="#2A5034"/>
<stop offset="1" stop-color="#2A5034" stop-opacity="0.64"/>
</linearGradient>
</defs>
</svg>
